<?xml version="1.0" encoding="UTF-8"?>
<svg height="16px" viewBox="0 0 16 16" width="16px" xmlns="http://www.w3.org/2000/svg">
  <path fill="#222222" fill-rule="evenodd" d="M6.73 1.02a1 1 0 0 1 1.54 0l.56.7a1 1 0 0 0 1.04.33l.87-.24a1 1 0 0 1 1.28.86l.08.89a1 1 0 0 0 .7.83l.86.29a1 1 0 0 1 .62 1.41l-.4.8a1 1 0 0 0 .12 1.08l.56.7a1 1 0 0 1 0 1.24l-.56.7a1 1 0 0 0-.12 1.08l.4.8a1 1 0 0 1-.62 1.41l-.86.29a1 1 0 0 0-.7.83l-.08.89a1 1 0 0 1-1.28.86l-.87-.24a1 1 0 0 0-1.04.33l-.56.7a1 1 0 0 1-1.54 0l-.56-.7a1 1 0 0 0-1.04-.33l-.87.24a1 1 0 0 1-1.28-.86l-.08-.89a1 1 0 0 0-.7-.83l-.86-.29a1 1 0 0 1-.62-1.41l.4-.8a1 1 0 0 0-.12-1.08l-.56-.7a1 1 0 0 1 0-1.24l.56-.7a1 1 0 0 0 .12-1.08l-.4-.8a1 1 0 0 1 .62-1.41l.86-.29a1 1 0 0 0 .7-.83l.08-.89a1 1 0 0 1 1.28-.86l.87.24a1 1 0 0 0 1.04-.33l.56-.7zM8 5.5A2.5 2.5 0 1 0 8 10.5 2.5 2.5 0 0 0 8 5.5z"/>
</svg>
