<?xml version="1.0" encoding="UTF-8"?>
<svg height="16px" viewBox="0 0 16 16" width="16px" xmlns="http://www.w3.org/2000/svg">
  <path fill="#222222" fill-rule="evenodd" d="M2 2.5A1.5 1.5 0 0 1 3.5 1h9A1.5 1.5 0 0 1 14 2.5v7A1.5 1.5 0 0 1 12.5 11H9.2l.9 2H12v1H4v-1h1.9l.9-2H3.5A1.5 1.5 0 0 1 2 9.5v-7zM3.5 2a.5.5 0 0 0-.5.5v7c0 .28.22.5.5.5h9a.5.5 0 0 0 .5-.5v-7a.5.5 0 0 0-.5-.5h-9zm.8 5.3 1.4-1.4a.5.5 0 0 1 .78.09l1.05 1.58 1.15-2.3a.5.5 0 0 1 .9.03l.78 1.56.77-.77.7.7-1.25 1.25a.5.5 0 0 1-.79-.1l-.63-1.26-1.1 2.2a.5.5 0 0 1-.87.04L6 7.02 5 8.03a.5.5 0 1 1-.7-.71z"/>
</svg>
